<?xml version="1.0" standalone="no"?>
<!DOCTYPE svg PUBLIC "-//W3C//DTD SVG 20010904//EN"
 "http://www.w3.org/TR/2001/REC-SVG-20010904/DTD/svg10.dtd">
<svg version="1.0" xmlns="http://www.w3.org/2000/svg"
 width="260.000000pt" height="260.000000pt" viewBox="0 0 260.000000 260.000000"
 preserveAspectRatio="xMidYMid meet">
<metadata>
Created by potrace 1.11, written by Peter Selinger 2001-2013
</metadata>
<g transform="translate(0.000000,260.000000) scale(0.100000,-0.100000)"
fill="#000000" stroke="none">
<path d="M1192 1880 c-47 -21 -162 -125 -162 -147 0 -23 16 -14 49 27 46 57
101 83 167 78 96 -8 154 -78 195 -239 20 -74 22 -116 26 -369 l4 -285 21 3
c12 1 23 3 23 5 1 1 69 135 151 297 81 162 150 297 151 299 20 29 52 -192 59
-411 l7 -198 26 7 c14 3 26 6 27 7 1 1 37 71 81 156 304 590 315 609 341 612
14 2 27 9 30 16 3 9 -24 12 -112 12 -96 0 -116 -3 -116 -15 0 -9 9 -15 23 -15
13 0 31 -6 41 -13 17 -12 17 -17 3 -64 -23 -76 -71 -182 -160 -353 l-81 -155
-17 155 c-16 149 -58 441 -64 448 -2 2 -13 1 -26 -3 -16 -5 -54 -73 -158 -284
l-136 -276 -8 160 c-13 268 -55 413 -141 500 -66 65 -161 83 -244 45z"/>
<path d="M750 1764 c-140 -37 -237 -177 -200 -288 8 -25 46 -68 126 -143 135
-126 154 -153 154 -217 0 -38 -6 -52 -35 -84 -34 -38 -87 -62 -137 -62 -35 0
-133 35 -169 61 l-31 22 -36 -36 c-43 -43 -39 -50 43 -71 121 -32 261 -13 344
48 59 41 108 106 117 152 14 74 -8 109 -151 249 -138 134 -153 157 -141 218 7
37 56 90 99 106 39 15 101 14 141 -3 40 -17 76 -60 76 -92 0 -48 27 -24 43 36
15 60 15 61 -7 75 -24 15 -134 45 -162 44 -11 0 -44 -7 -74 -15z"/>
</g>
</svg>
